<svg xmlns="http://www.w3.org/2000/svg" viewBox="0 0 32 32" width="32" height="32">
  <!-- Static gear shape -->
  <g fill="#4C818B">
    <!-- Center circle -->
    <circle cx="16" cy="16" r="6"/>
    
    <!-- Gear teeth -->
    <rect x="14.5" y="2" width="3" height="4" rx="1"/>
    <rect x="14.5" y="26" width="3" height="4" rx="1"/>
    <rect x="2" y="14.5" width="4" height="3" rx="1"/>
    <rect x="26" y="14.5" width="4" height="3" rx="1"/>
    
    <!-- Diagonal teeth -->
    <rect x="8.5" y="4.5" width="3" height="4" rx="1" transform="rotate(45 16 16)"/>
    <rect x="20.5" y="4.5" width="3" height="4" rx="1" transform="rotate(-45 16 16)"/>
    <rect x="8.5" y="23.5" width="3" height="4" rx="1" transform="rotate(-45 16 16)"/>
    <rect x="20.5" y="23.5" width="3" height="4" rx="1" transform="rotate(45 16 16)"/>
  </g>
  
  <!-- Center hole -->
  <circle cx="16" cy="16" r="3" fill="white"/>
</svg>


